<?xml version="1.0" standalone="no"?>
<!DOCTYPE svg PUBLIC "-//W3C//DTD SVG 20010904//EN"
 "http://www.w3.org/TR/2001/REC-SVG-20010904/DTD/svg10.dtd">
<svg version="1.0" xmlns="http://www.w3.org/2000/svg"
 width="1024.000000pt" height="1024.000000pt" viewBox="0 0 1024.000000 1024.000000"
 preserveAspectRatio="xMidYMid meet">

<g transform="translate(0.000000,1024.000000) scale(0.100000,-0.100000)"
fill="#000000" stroke="none">
<path d="M4540 8780 l0 -390 -82 -53 c-46 -30 -201 -127 -345 -217 l-263 -163
0 -1311 0 -1311 -55 -21 -55 -21 0 762 0 762 -142 68 c-272 131 -383 183 -421
198 l-37 16 -233 -139 c-127 -77 -236 -141 -242 -143 -7 -2 -12 -309 -15 -881
l-5 -877 -150 -60 c-189 -75 -456 -207 -605 -298 -63 -39 -111 -71 -107 -71 4
0 133 32 285 72 763 197 1387 315 1972 373 555 55 1384 61 1940 14 583 -49
1345 -199 2125 -418 38 -11 71 -19 72 -18 3 4 -279 159 -364 201 -228 113
-604 263 -840 335 l-103 32 0 788 0 788 -312 168 c-171 93 -317 168 -324 168
-6 0 -117 -55 -245 -123 -129 -68 -249 -131 -266 -139 l-33 -15 -2 -726 -3
-725 -48 2 c-27 1 -55 4 -63 7 -12 5 -14 221 -14 1585 l0 1579 -267 160 c-148
89 -369 222 -493 297 -123 74 -233 135 -242 135 -17 0 -18 -24 -18 -390z m322
-183 l73 -44 3 -111 c1 -62 0 -112 -3 -112 -6 0 -143 77 -154 86 -8 6 -9 224
-1 224 4 0 41 -19 82 -43z m290 -178 l38 -24 0 -102 c0 -57 -2 -103 -5 -103
-3 0 -35 17 -70 37 l-65 37 -1 56 c-2 55 -2 94 0 138 l1 24 33 -19 c17 -11 49
-30 69 -44z m218 -127 l55 -37 3 -108 c1 -60 -1 -107 -5 -105 -4 1 -34 18 -65
36 l-58 34 0 109 c0 60 3 109 8 109 4 0 32 -17 62 -38z m-480 -215 l45 -25 3
-116 c1 -64 0 -116 -4 -116 -3 0 -18 8 -32 19 -15 10 -47 29 -72 41 -25 12
-48 28 -53 34 -7 11 -8 204 0 218 2 4 18 -1 36 -12 18 -10 52 -29 77 -43z
m235 -134 l65 -37 0 -108 c0 -59 -3 -108 -7 -108 -5 0 -37 17 -73 38 l-65 38
-3 107 c-2 72 1 107 8 107 6 0 40 -17 75 -37z m-705 -72 l0 -99 -69 -41 c-38
-22 -72 -41 -75 -41 -3 0 -6 44 -6 98 l1 97 67 42 c37 22 70 41 75 42 4 1 7
-43 7 -98z m983 -83 c27 -19 27 -21 27 -129 0 -99 -7 -128 -25 -99 -4 6 -29
22 -56 35 l-49 25 0 116 0 116 38 -23 c20 -12 49 -31 65 -41z m-1235 -65 l-3
-97 -55 -33 c-30 -18 -63 -38 -72 -43 -17 -10 -18 -3 -18 89 l0 99 63 40 c34
22 68 41 75 41 10 1 12 -22 10 -96z m697 -131 l70 -38 3 -107 c1 -59 0 -107
-3 -107 -6 0 -147 70 -154 76 -3 2 -6 51 -8 109 -4 82 -2 105 9 105 7 0 45
-17 83 -38z m-445 -194 l0 -113 -69 -37 c-38 -21 -72 -38 -75 -38 -4 0 -5 48
-4 107 l3 107 70 42 c39 24 71 43 73 43 1 1 2 -50 2 -111z m707 57 l63 -36 0
-109 0 -109 -62 35 c-89 51 -90 52 -84 98 3 23 5 67 5 99 1 31 4 57 8 57 3 0
35 -16 70 -35z m-957 -192 c0 -54 -4 -103 -8 -108 -14 -20 -132 -86 -142 -80
-12 7 -4 208 8 213 4 1 34 18 67 36 33 19 63 35 68 35 4 1 7 -43 7 -96z m1200
64 l55 -32 3 -112 3 -112 -66 36 -65 37 0 108 c0 59 4 108 8 108 4 0 32 -15
62 -33z m-430 -362 c0 -58 -2 -105 -5 -105 -3 0 -41 18 -84 40 l-78 40 2 102
c1 57 3 104 4 106 0 1 37 -16 81 -38 l80 -40 0 -105z m-520 -42 l0 -98 -70
-37 c-38 -21 -72 -38 -75 -38 -3 0 -4 44 -3 97 l3 97 65 38 c36 21 68 38 73
38 4 0 7 -44 7 -97z m705 54 l60 -32 3 -107 3 -108 -73 38 -72 38 2 70 c0 38
1 84 2 102 0 17 3 32 8 32 4 0 34 -15 67 -33z m303 -262 l3 -105 -63 35 -63
34 -3 106 -3 107 63 -36 63 -35 3 -106z m-1258 70 l0 -94 -68 -41 c-38 -22
-72 -40 -78 -40 -5 0 -7 39 -4 97 l5 97 65 38 c36 21 68 38 73 38 4 0 7 -43 7
-95z m2388 -92 l162 -87 0 -73 c0 -40 -3 -73 -6 -73 -3 0 -84 41 -180 91
l-174 91 0 75 c0 67 2 74 18 69 9 -4 90 -46 180 -93z m-3517 -87 c-5 -6 -28
-22 -50 -34 l-41 -23 0 85 0 84 48 30 47 29 3 -80 c2 -43 -2 -84 -7 -91z m289
144 l60 -30 0 -75 c0 -41 -4 -75 -8 -75 -5 0 -36 13 -70 30 l-62 30 0 75 c0
45 4 75 10 75 6 0 37 -14 70 -30z m2796 -1 c-3 -17 -6 -49 -6 -70 0 -34 -5
-42 -37 -63 -34 -21 -167 -96 -185 -104 -5 -2 -8 30 -8 72 l0 76 78 39 c42 22
91 49 107 60 45 30 59 27 51 -10z m-2581 -96 l55 -27 0 -78 0 -78 -60 30 -60
30 0 75 c0 41 2 75 5 75 2 0 29 -12 60 -27z m1395 -169 c0 -58 -3 -104 -7
-102 -5 2 -41 20 -80 39 -66 31 -73 37 -73 64 -1 17 -2 63 -3 103 -1 40 -1 75
1 77 2 2 39 -14 83 -36 l79 -39 0 -106z m-2078 100 l3 -77 -42 -29 -43 -29 0
85 0 84 33 20 c17 11 35 21 39 21 3 1 8 -33 10 -75z m1558 -131 l0 -98 -69
-37 c-38 -21 -72 -38 -75 -38 -4 0 -5 44 -4 97 l3 98 65 36 c36 20 68 37 73
38 4 1 7 -43 7 -96z m708 49 l62 -32 0 -105 c0 -58 -2 -105 -5 -105 -3 0 -36
15 -73 34 l-67 34 2 68 c1 38 2 86 2 107 1 21 4 37 9 35 4 -2 35 -18 70 -36z
m-1804 -113 l66 -31 0 -68 c0 -38 -4 -71 -8 -74 -5 -3 -36 9 -70 27 l-62 32 0
73 c0 39 2 72 4 72 2 0 34 -14 70 -31z m835 -155 c-6 -8 -40 -29 -75 -48 l-64
-34 0 94 0 93 73 40 72 40 3 -85 c2 -55 -1 -91 -9 -100z m2392 99 l169 -88 0
-67 c0 -43 -4 -68 -11 -68 -6 0 -87 39 -180 86 l-169 86 0 69 c0 45 4 69 11
69 7 0 88 -39 180 -87z m-1165 38 l44 -26 0 -97 c0 -54 -2 -98 -5 -98 -3 0
-32 14 -65 30 l-60 30 0 101 c0 114 -1 113 86 60z m736 -26 c-4 -75 -1 -72
-145 -149 l-88 -47 3 73 3 73 105 57 c58 31 110 57 115 57 6 1 9 -25 7 -64z
m-3072 -29 l0 -84 -44 -26 c-25 -14 -47 -26 -50 -26 -3 0 -6 36 -6 80 l0 80
48 30 c26 16 48 30 50 30 1 0 2 -38 2 -84z m494 -22 l56 -25 0 -75 c0 -41 -2
-74 -5 -74 -2 0 -29 12 -60 27 l-55 27 0 73 c0 40 2 73 4 73 2 0 29 -12 60
-26z m-680 -30 c4 -15 4 -51 0 -81 -6 -50 -9 -55 -45 -74 l-39 -19 0 79 c0 79
0 79 33 99 42 27 44 26 51 -4z m2076 -261 c0 -57 -2 -103 -4 -103 -2 0 -38 16
-80 36 -70 33 -76 39 -77 68 -5 92 -5 152 -1 162 2 8 31 -1 83 -24 l79 -35 0
-104z m-520 -3 l0 -100 -70 -35 c-38 -19 -72 -35 -75 -35 -3 0 -5 45 -5 100
l0 100 68 34 c37 19 70 35 75 36 4 0 7 -45 7 -100z m2124 -16 l176 -86 0 -69
c0 -38 -4 -69 -8 -69 -8 0 -171 77 -302 143 l-45 22 -3 73 c-2 39 -1 72 2 72
2 0 83 -39 180 -86z m-3220 45 l66 -31 0 -74 c0 -41 -3 -74 -7 -74 -5 0 -36
12 -70 27 l-63 27 0 78 c0 43 2 78 4 78 2 0 34 -14 70 -31z m1866 -140 c0 -60
-1 -109 -2 -109 -2 0 -32 15 -68 33 l-65 34 -3 106 -3 106 71 -31 70 -31 0
-108z m930 92 l0 -70 -107 -58 c-59 -32 -111 -59 -115 -61 -4 -2 -8 29 -8 70
l0 74 108 56 c59 31 110 57 115 57 4 1 7 -30 7 -68z m-3070 -26 l0 -75 -47
-30 -48 -29 -3 71 c-2 39 -1 77 2 84 5 12 72 53 89 54 4 0 7 -34 7 -75z m1115
-150 c-5 -25 -17 -35 -67 -60 -33 -16 -64 -31 -69 -33 -5 -2 -9 41 -9 95 l0
99 73 36 72 35 3 -71 c2 -39 0 -84 -3 -101z m-621 129 l56 -25 0 -75 c0 -44
-4 -74 -10 -74 -6 0 -33 11 -60 25 l-50 25 0 75 c0 41 2 75 4 75 2 0 29 -12
60 -26z m-681 -109 c-5 -44 -10 -55 -33 -69 -46 -27 -50 -22 -50 59 l0 75 38
24 37 23 7 -30 c3 -17 4 -54 1 -82z m2565 -47 c2 -62 -1 -98 -7 -98 -6 0 -35
12 -66 27 l-55 27 0 104 0 103 63 -33 62 -33 3 -97z m1135 -152 l157 -75 0
-70 0 -71 -152 75 c-232 113 -208 94 -208 169 0 77 -24 81 203 -28z m-3243 39
c25 -10 51 -23 58 -28 13 -10 18 -143 5 -150 -5 -2 -36 9 -70 25 l-63 30 0 75
c0 56 3 74 13 70 6 -3 32 -13 57 -22z m-270 -60 l0 -74 -43 -26 c-24 -14 -47
-25 -50 -25 -4 0 -7 34 -7 75 l0 75 48 24 c26 14 48 25 50 26 1 0 2 -34 2 -75z
m538 -58 c11 -8 19 -157 7 -157 -2 0 -29 12 -60 27 l-55 27 0 78 0 77 48 -22
c26 -12 53 -26 60 -30z m-726 -67 c-3 -50 -7 -57 -38 -78 -18 -12 -36 -22 -39
-22 -8 0 -6 144 3 155 4 6 21 20 37 32 l30 22 5 -27 c3 -15 4 -52 2 -82z"/>
<path d="M2172 4410 c-223 -29 -363 -111 -428 -253 -27 -57 -29 -71 -29 -177
0 -105 2 -120 28 -175 32 -68 54 -95 115 -137 89 -62 216 -91 532 -123 289
-29 348 -42 399 -88 53 -49 76 -150 50 -228 -26 -77 -110 -131 -236 -149 -140
-20 -413 -10 -524 20 -95 26 -159 115 -159 222 l0 58 -118 0 -119 0 4 -57 c5
-70 27 -163 49 -210 52 -109 178 -190 344 -220 127 -23 478 -23 595 -1 206 40
321 121 376 266 24 65 30 228 11 297 -28 99 -112 184 -222 225 -83 31 -174 47
-410 75 -263 31 -322 41 -381 66 -100 43 -137 160 -83 267 48 98 150 132 394
132 173 0 257 -12 328 -46 63 -31 102 -84 110 -149 l5 -45 110 0 110 0 -7 73
c-16 181 -137 300 -347 342 -90 18 -397 27 -497 15z"/>
<path d="M3270 3646 l0 -744 120 -1 120 -2 0 746 0 745 -120 0 -120 0 0 -744z"/>
<path d="M3694 4288 l5 -103 270 -3 271 -2 2 -638 3 -637 115 0 115 0 3 638 2
637 275 0 275 0 0 105 0 105 -671 0 -670 0 5 -102z"/>
<path d="M5182 3648 l3 -743 118 -3 117 -3 0 287 0 287 318 -5 c336 -6 355 -9
405 -56 64 -60 82 -132 92 -351 3 -80 8 -148 11 -153 3 -4 57 -8 121 -8 l116
0 -7 43 c-4 23 -11 119 -16 212 -11 229 -35 295 -132 365 l-39 29 35 16 c47
23 122 105 146 159 56 132 51 327 -13 453 -54 106 -163 181 -298 203 -37 6
-255 10 -522 10 l-457 0 2 -742z m951 521 c94 -26 142 -110 142 -249 0 -75 -4
-91 -30 -138 -59 -109 -74 -112 -486 -112 l-339 0 0 255 0 255 338 0 c204 0
352 -4 375 -11z"/>
<path d="M6740 3646 l0 -743 115 -2 115 -2 0 746 0 745 -115 0 -115 0 0 -744z"/>
<path d="M7240 3645 l0 -745 115 0 115 0 2 601 3 600 120 -163 c302 -411 759
-1024 769 -1030 6 -4 75 -8 154 -8 l142 0 0 745 0 745 -115 0 -115 0 -2 -603
-3 -603 -195 264 c-107 145 -309 417 -449 603 l-253 339 -144 0 -144 0 0 -745z"/>
<path d="M1714 2337 c-2 -7 -3 -71 -2 -143 l3 -129 125 0 125 0 3 99 c3 118
-8 153 -54 172 -44 18 -193 19 -200 1z m164 -53 c20 -13 22 -24 22 -95 l0 -79
-60 0 -60 0 0 95 0 95 38 0 c21 0 48 -7 60 -16z"/>
<path d="M2040 2265 l0 -85 30 0 30 0 0 85 0 85 -30 0 -30 0 0 -85z"/>
<path d="M2165 2333 c26 -65 27 -75 11 -167 -9 -51 -16 -97 -16 -100 0 -4 15
-6 33 -4 l32 3 16 95 c14 78 21 98 43 117 59 51 88 20 84 -90 l-3 -72 -40 -5
c-37 -5 -41 -9 -36 -40 0 -7 27 -10 69 -8 l67 3 9 72 c10 87 2 153 -25 187
-27 34 -93 36 -134 5 -22 -18 -29 -20 -36 -8 -5 8 -9 17 -9 22 0 4 -16 7 -36
7 -30 0 -35 -3 -29 -17z"/>
<path d="M2467 2343 c-4 -3 -7 -15 -7 -25 0 -16 9 -18 65 -18 l65 0 0 -120 0
-120 30 0 30 0 0 98 c0 116 6 142 31 142 14 0 19 7 19 25 l0 25 -113 0 c-63 0
-117 -3 -120 -7z"/>
<path d="M2740 2326 c0 -26 1 -26 69 -26 38 0 81 -4 95 -10 40 -15 35 -54 -29
-212 -6 -15 -2 -18 27 -18 33 0 36 3 62 67 15 37 30 88 33 113 5 39 2 50 -20
75 -24 28 -28 30 -131 33 l-106 4 0 -26z"/>
<path d="M3040 2327 c0 -19 6 -26 23 -29 21 -3 22 -7 22 -88 0 -79 -2 -86 -22
-95 -15 -6 -23 -18 -23 -34 0 -22 3 -23 37 -18 59 10 67 25 73 135 5 95 6 97
30 100 14 1 36 -4 50 -11 24 -12 25 -18 30 -117 l5 -105 33 -3 32 -3 0 99 c0
171 -12 184 -177 190 l-113 4 0 -25z"/>
<path d="M3390 2341 c0 -5 6 -24 14 -42 12 -29 12 -45 1 -109 -22 -118 -20
-130 14 -130 29 0 29 0 46 98 14 78 22 101 42 120 50 45 93 9 93 -78 0 -78 -7
-90 -51 -90 -35 0 -39 -3 -39 -25 0 -24 2 -25 69 -25 82 0 81 -2 81 119 0 97
-12 146 -40 161 -30 16 -82 11 -117 -10 -32 -19 -33 -19 -43 0 -11 20 -70 29
-70 11z"/>
<path d="M3840 2327 c0 -19 6 -26 23 -29 21 -3 22 -7 22 -88 0 -79 -2 -86 -22
-95 -15 -6 -23 -18 -23 -34 0 -22 3 -23 37 -18 59 10 67 25 73 135 5 95 6 97
30 100 14 1 36 -4 50 -11 24 -12 25 -18 30 -117 l5 -105 33 -3 32 -3 0 99 c0
171 -12 184 -177 190 l-113 4 0 -25z"/>
<path d="M4204 2337 c-2 -7 -3 -71 -2 -143 l3 -129 33 -3 32 -3 0 145 0 146
-30 0 c-17 0 -33 -6 -36 -13z"/>
<path d="M4318 2344 c-5 -4 -8 -16 -8 -26 0 -15 8 -18 53 -18 81 0 86 -7 89
-130 l3 -105 33 -3 34 -3 -4 120 c-4 153 -12 164 -121 169 -39 2 -75 0 -79 -4z"/>
<path d="M4590 2265 l0 -85 30 0 30 0 0 85 0 85 -30 0 -30 0 0 -85z"/>
<path d="M4711 2328 c1 -67 37 -250 50 -259 19 -12 136 -11 178 1 79 22 131
113 131 227 0 52 -1 53 -29 53 -28 0 -28 -2 -35 -66 -13 -130 -46 -169 -139
-169 -62 0 -62 0 -65 31 -3 28 0 31 45 45 56 17 73 42 73 112 0 47 -1 48 -27
45 -25 -3 -29 -8 -34 -51 -5 -48 -19 -67 -51 -67 -12 0 -19 11 -23 38 -13 81
-14 82 -45 82 -25 0 -30 -4 -29 -22z"/>
<path d="M5135 2338 c-3 -8 -4 -72 -3 -144 l3 -129 30 0 30 0 0 140 0 140 -28
3 c-16 2 -29 -2 -32 -10z"/>
<path d="M5400 2326 c0 -25 2 -26 63 -26 34 0 73 -6 87 -13 24 -12 25 -18 30
-117 l5 -105 33 -3 32 -3 0 100 c0 161 -18 182 -161 189 l-89 4 0 -26z"/>
<path d="M5720 2325 c0 -24 2 -25 73 -25 95 0 122 -16 112 -69 -4 -20 -18 -63
-31 -95 -13 -33 -24 -63 -24 -68 0 -5 15 -8 32 -6 30 3 35 8 60 73 28 73 35
143 18 175 -14 26 -70 40 -162 40 -77 0 -78 0 -78 -25z"/>
<path d="M6010 2325 c0 -18 5 -25 19 -25 16 0 18 -7 18 -52 -1 -29 2 -84 7
-121 l8 -68 31 3 c31 3 31 3 27 53 -2 28 -5 79 -5 115 0 60 2 65 23 68 16 3
22 10 22 28 0 23 -2 24 -75 24 -73 0 -75 -1 -75 -25z"/>
<path d="M6217 2343 c-4 -3 -7 -69 -7 -145 l0 -138 30 0 29 0 3 118 3 117 36
3 c24 2 43 -3 60 -17 22 -18 24 -27 27 -120 l4 -101 29 0 29 0 0 105 c0 122
-12 157 -61 174 -35 12 -171 15 -182 4z"/>
<path d="M6520 2343 c0 -3 12 -22 26 -41 l27 -34 -22 -43 c-14 -29 -21 -61
-21 -104 0 -61 0 -61 29 -61 28 0 29 1 33 65 2 35 8 68 12 72 5 4 18 -5 30
-21 78 -107 82 -111 114 -114 40 -4 40 7 2 64 l-31 44 27 35 c20 27 27 47 28
87 1 53 1 53 -31 56 -32 3 -33 3 -33 -38 0 -41 -14 -80 -28 -80 -5 0 -27 27
-50 60 -38 54 -46 60 -77 60 -19 0 -35 -3 -35 -7z"/>
<path d="M6950 2325 c0 -18 5 -25 20 -25 18 0 20 -7 20 -88 0 -86 -1 -89 -26
-101 -40 -18 -28 -46 21 -45 62 2 75 27 75 140 l0 94 28 0 c15 0 38 -6 52 -13
24 -12 25 -18 30 -117 l5 -105 30 0 30 0 0 111 c0 96 -3 115 -19 133 -27 29
-77 41 -178 41 -87 0 -88 0 -88 -25z"/>
<path d="M7315 2338 c-3 -8 -4 -72 -3 -144 l3 -129 30 0 30 0 0 140 0 140 -28
3 c-16 2 -29 -2 -32 -10z"/>
<path d="M7440 2326 c0 -22 4 -26 28 -26 44 0 52 -16 52 -107 l0 -83 -45 0
c-42 0 -45 -2 -45 -25 0 -26 0 -26 78 -23 l77 3 0 122 c0 145 -5 154 -89 161
-55 4 -56 4 -56 -22z"/>
<path d="M7660 2205 l0 -146 33 3 32 3 0 140 0 140 -32 3 -33 3 0 -146z"/>
<path d="M7777 2343 c-4 -3 -7 -15 -7 -25 0 -15 8 -18 51 -18 86 0 89 -4 89
-131 l0 -110 33 3 32 3 3 100 c3 114 -14 164 -58 176 -33 9 -135 11 -143 2z"/>
<path d="M8030 2327 c0 -19 6 -26 23 -29 21 -3 22 -7 22 -88 0 -79 -2 -86 -22
-95 -15 -6 -23 -18 -23 -34 0 -22 3 -23 37 -18 59 10 67 25 73 135 5 95 6 97
30 100 14 1 36 -4 50 -11 24 -12 25 -18 30 -117 l5 -105 33 -3 32 -3 0 99 c0
171 -12 184 -177 190 l-113 4 0 -25z"/>
<path d="M8397 2343 c-3 -5 -8 -32 -12 -60 -6 -50 -5 -55 23 -83 36 -35 58
-38 67 -9 5 14 0 27 -15 41 -12 11 -20 29 -18 41 3 19 9 22 51 21 31 0 52 -6
58 -15 5 -8 8 -48 7 -89 l-3 -75 -88 -3 c-85 -3 -88 -4 -85 -25 3 -21 8 -22
112 -25 66 -2 113 1 120 8 5 5 12 52 14 103 5 116 -9 151 -66 166 -43 12 -159
15 -165 4z"/>
<path d="M2745 2218 c-3 -8 -4 -68 -3 -134 l3 -119 30 0 30 0 0 130 0 130 -28
3 c-16 2 -29 -2 -32 -10z"/>
<path d="M5407 2224 c-4 -4 -7 -43 -7 -86 l0 -79 33 3 32 3 0 80 c0 78 -1 80
-25 83 -14 2 -29 0 -33 -4z"/>
<path d="M5725 2218 c-3 -8 -4 -68 -3 -134 l3 -119 30 0 30 0 0 130 0 130 -28
3 c-16 2 -29 -2 -32 -10z"/>
</g>
</svg>
