<?xml version="1.0" standalone="no"?>
<!DOCTYPE svg PUBLIC "-//W3C//DTD SVG 20010904//EN"
 "http://www.w3.org/TR/2001/REC-SVG-20010904/DTD/svg10.dtd">
<svg version="1.0" xmlns="http://www.w3.org/2000/svg"
 width="1024.000000pt" height="1024.000000pt" viewBox="0 0 1024.000000 1024.000000"
 preserveAspectRatio="xMidYMid meet">

<g transform="translate(0.000000,1024.000000) scale(0.100000,-0.100000)"
fill="#000000" stroke="none">
<path d="M4510 8367 l0 -402 -63 -40 c-35 -22 -188 -120 -340 -219 l-277 -178
-1 -962 c0 -528 0 -1187 1 -1462 1 -533 0 -549 -47 -560 -42 -11 -70 3 -77 37
-3 17 -6 394 -6 838 l0 806 -58 34 c-279 165 -513 301 -520 301 -4 0 -113 -67
-242 -148 l-235 -148 -3 -997 -2 -997 -38 -23 c-20 -14 -127 -75 -237 -137
-289 -163 -538 -314 -527 -318 11 -3 91 19 487 133 843 244 1593 352 2557 371
783 15 1579 -56 2267 -201 182 -39 534 -128 711 -180 316 -93 352 -102 338
-90 -14 14 -264 148 -458 246 -69 34 -278 133 -465 219 l-340 156 -5 894 -5
895 -255 147 c-140 81 -290 166 -332 188 l-76 40 -271 -171 -271 -171 0 -789
c0 -776 0 -789 -20 -809 -21 -21 -55 -26 -80 -10 -13 8 -16 217 -20 1747 l-5
1738 -85 51 c-47 28 -175 104 -285 169 -196 116 -589 349 -651 386 -68 41 -64
62 -64 -384z m440 -389 l0 -148 -80 43 -80 42 0 148 0 148 80 -43 80 -43 0
-147z m169 46 c84 -49 81 -41 81 -191 0 -73 -2 -133 -5 -133 -3 0 -35 17 -70
37 l-65 37 0 138 c0 76 3 138 7 138 3 0 27 -12 52 -26z m256 -142 l60 -37 3
-133 c1 -76 -1 -132 -7 -132 -5 0 -35 15 -67 33 l-59 33 -3 137 c-1 75 1 137
5 136 4 0 35 -17 68 -37z m-497 -285 l72 -37 0 -129 0 -130 -80 42 -80 42 0
128 c0 71 3 127 8 125 4 -2 40 -20 80 -41z m-448 -162 l0 -135 -67 -43 c-38
-24 -74 -47 -80 -51 -10 -6 -13 22 -13 127 l0 134 78 51 c42 28 78 51 80 51 1
1 2 -60 2 -134z m768 -138 c1 -70 0 -127 -3 -127 -2 0 -34 14 -70 32 l-65 32
0 132 0 132 68 -37 67 -36 3 -128z m-1038 -32 l0 -134 -71 -46 c-39 -25 -73
-45 -75 -43 -8 8 -5 263 3 265 5 2 38 23 73 48 36 24 66 44 68 44 1 1 2 -60 2
-134z m1258 38 c21 -13 22 -19 22 -143 0 -72 -2 -130 -5 -130 -2 0 -34 16 -70
36 l-65 36 0 134 0 135 48 -27 c26 -15 57 -33 70 -41z m-468 -396 l0 -117 -80
40 -80 40 0 121 0 120 80 -43 80 -43 0 -118z m-520 29 l0 -134 -80 -51 -80
-51 0 133 0 132 78 52 c42 28 78 52 80 52 1 1 2 -59 2 -133z m770 -161 c0 -63
-3 -115 -7 -115 -4 0 -35 15 -70 33 l-63 32 0 118 0 117 70 -35 70 -35 0 -115z
m-1040 -14 l0 -129 -62 -39 c-35 -22 -69 -43 -75 -47 -10 -6 -13 22 -13 126
l1 133 67 42 c37 23 70 43 75 43 4 0 7 -58 7 -129z m1218 41 l62 -32 0 -120
c0 -66 -3 -120 -6 -120 -3 0 -35 16 -70 36 l-64 36 0 120 c0 66 3 118 8 116 4
-2 35 -18 70 -36z m-428 -402 l0 -120 -80 43 -80 42 0 118 0 117 80 -40 80
-40 0 -120z m-520 21 l0 -128 -75 -47 c-42 -25 -78 -46 -81 -46 -2 0 -3 57 -2
127 l3 126 75 48 c41 26 76 48 78 48 1 1 2 -57 2 -128z m707 -6 l63 -36 0
-109 c0 -61 -2 -110 -5 -110 -2 0 -34 14 -70 32 l-65 32 0 113 c0 62 3 113 7
113 3 0 35 -16 70 -35z m-981 -281 c-2 -6 -36 -30 -75 -52 l-71 -41 0 123 0
123 73 44 72 44 3 -114 c1 -63 1 -120 -2 -127z m1224 153 l55 -32 3 -113 c1
-61 0 -112 -4 -112 -3 0 -35 16 -70 36 l-64 36 0 109 c0 82 3 109 13 109 7 0
37 -15 67 -33z m-2340 -160 l0 -92 -47 -30 c-27 -16 -51 -31 -55 -33 -5 -2 -8
37 -8 86 l0 90 48 36 c26 19 50 36 55 36 4 0 7 -42 7 -93z m3088 1 l-3 -93
-50 -27 c-27 -15 -53 -28 -57 -28 -5 0 -8 38 -8 85 l0 84 53 35 c28 19 56 35
60 35 4 1 6 -41 5 -91z m436 -23 l196 -94 0 -76 c0 -41 -4 -75 -9 -75 -4 0
-93 41 -197 90 l-189 90 -3 80 c-2 44 -1 80 2 80 2 0 92 -43 200 -95z m-3184
-73 l0 -84 -32 19 c-84 49 -78 40 -78 130 l0 81 55 -31 54 -32 1 -83z m2618
22 l-3 -87 -52 -33 -53 -34 0 93 0 92 48 27 c26 15 51 27 55 27 4 1 6 -38 5
-85z m-3138 -42 l0 -88 -45 -32 c-25 -18 -48 -32 -50 -32 -3 0 -5 40 -5 89 l0
89 48 31 c26 17 48 31 50 31 1 0 2 -40 2 -88z m2015 51 l75 -37 0 -118 0 -118
-80 40 -80 40 0 115 c0 63 2 115 5 115 2 0 38 -17 80 -37z m-1317 -51 c9 -6
12 -31 10 -90 l-3 -82 -52 30 -53 30 0 86 0 85 43 -26 c23 -14 48 -29 55 -33z
m872 -91 l0 -119 -72 -42 c-40 -24 -77 -45 -81 -47 -4 -3 -6 50 -5 117 l3 122
75 44 c41 24 76 43 78 43 1 1 2 -52 2 -118z m770 -141 l0 -110 -70 35 -70 35
0 110 0 110 70 -35 70 -35 0 -110z m-1040 -19 l0 -118 -72 -42 c-39 -23 -72
-40 -74 -38 -9 9 -5 232 4 235 6 2 37 21 69 42 32 21 61 39 66 39 4 1 7 -52 7
-118z m-1120 -25 l0 -93 -55 -37 -55 -36 1 97 0 98 47 31 c26 18 50 32 55 33
4 1 7 -41 7 -93z m2340 64 l60 -30 0 -110 c0 -61 -2 -110 -4 -110 -2 0 -33 15
-68 34 l-63 33 -3 107 c-2 70 1 106 8 106 6 0 37 -14 70 -30z m750 -65 l0 -85
-60 -30 -60 -30 0 84 0 84 53 30 c28 17 55 31 60 31 4 1 7 -37 7 -84z m-2767
21 c14 -9 17 -26 17 -99 l0 -87 -52 30 -53 30 -3 91 -3 91 38 -23 c21 -13 46
-28 56 -33z m3199 -33 l188 -88 0 -77 0 -77 -52 24 c-29 13 -115 52 -191 88
l-138 65 -3 76 c-2 42 -1 76 2 76 3 0 91 -39 194 -87z m-564 -59 l-3 -85 -52
-30 -53 -31 0 91 0 91 48 24 c26 14 51 25 55 26 4 0 6 -38 5 -86z m-3159 -155
c-13 -9 -35 -24 -51 -33 l-28 -17 0 94 0 95 48 31 47 30 3 -91 c3 -85 1 -94
-19 -109z m681 150 l50 -31 0 -84 c0 -85 0 -85 -22 -73 -13 6 -38 22 -55 36
-32 24 -33 25 -33 104 0 43 2 79 5 79 3 0 27 -14 55 -31z m1430 -285 c0 -64
-3 -114 -7 -112 -5 2 -40 19 -80 38 l-72 35 -1 118 0 117 80 -40 80 -40 0
-116z m-520 17 l0 -119 -80 -45 -81 -46 3 122 3 121 75 43 c41 24 76 43 78 43
1 0 2 -54 2 -119z m-1393 -135 c-3 -7 -28 -26 -56 -43 l-51 -32 0 94 0 94 53
34 52 34 3 -85 c2 -47 1 -90 -1 -96z m3093 99 l0 -85 -60 -30 -60 -30 0 84 0
85 53 29 c28 16 55 30 60 31 4 0 7 -37 7 -84z m-2750 -76 l0 -89 -55 27 -55
27 0 92 0 92 55 -30 55 -30 0 -89z m1820 -24 c0 -58 -2 -105 -5 -105 -2 0 -34
14 -70 32 l-65 32 0 108 0 108 70 -35 70 -35 0 -105z m1356 86 c170 -80 190
-92 195 -118 9 -41 10 -121 2 -126 -5 -2 -69 24 -143 59 -74 35 -160 74 -191
88 l-56 24 -1 81 c0 45 0 81 2 81 1 0 88 -40 192 -89z m-559 -135 c-3 -7 -28
-24 -56 -39 l-51 -28 0 88 1 88 52 26 52 27 3 -76 c2 -41 1 -80 -1 -86z
m-1839 37 l-3 -117 -72 -43 -73 -43 -1 110 c-1 61 -2 115 -3 120 -1 10 129 89
147 90 4 0 6 -53 5 -117z m-1298 -16 l0 -92 -45 -28 c-25 -15 -48 -27 -50 -27
-3 0 -5 42 -5 93 l0 92 43 27 c23 14 45 27 50 27 4 1 7 -41 7 -92z m708 -57
l3 -91 -53 30 -53 31 -3 90 -3 91 53 -30 53 -31 3 -90z m1807 107 l60 -32 3
-102 c1 -57 1 -103 -2 -103 -2 0 -34 13 -70 30 l-66 29 0 106 c0 58 3 105 8
105 4 0 34 -15 67 -33z m1184 -326 l181 -85 0 -78 c0 -76 0 -77 -22 -69 -13 5
-97 43 -188 85 l-165 75 -3 82 c-2 46 1 79 6 77 5 -1 91 -41 191 -87z m-3179
-83 c0 -49 -3 -88 -7 -86 -5 2 -29 14 -55 28 l-48 24 0 92 0 92 55 -30 55 -30
0 -90z m-340 47 l0 -95 -41 -25 c-72 -46 -69 -48 -69 58 l0 95 48 30 c26 17
50 31 55 31 4 1 7 -42 7 -94z m485 -32 l45 -28 0 -88 0 -88 -52 28 -53 28 -3
88 c-2 53 1 87 7 87 6 0 31 -12 56 -27z m-665 -78 l0 -95 -37 -23 c-21 -13
-44 -27 -50 -31 -10 -6 -13 15 -13 91 l1 98 42 27 c23 14 45 27 50 27 4 1 7
-42 7 -94z"/>
</g>
</svg>
